# xmcd
#
# Track frame offsets: 
#        150
#        19193
#        35897
#        49172
#        65802
#        85294
#        100149
#        119615
#        138808
#        157208
#        172009
#        195629
#        216931
#        234018
#        256642
#        277905
#
# Disc length: 3962 seconds
#
# Revision: 0
# Processed by: cddbd v1.5.2PL0 Copyright (c) Steve Scherf et al.
# Submitted via: ExactAudioCopy v1.3
#
DISCID=e50f7810
DTITLE=Reverend Raven and The Chain Smokin' Altar Boys - My Life (Twenti
DTITLE=eth Anniversary)
DYEAR=2017
DGENRE=Blues
TTITLE0=Handyman
TTITLE1=Be Hive Baby
TTITLE2=Creature of Habit
TTITLE3=Bad LIttle Girls
TTITLE4=I Want to Love You
TTITLE5=Once the Women Start Talking
TTITLE6=My Life
TTITLE7=Here Comes my Baby
TTITLE8=Praying for a Princess
TTITLE9=Big Bee
TTITLE10=Looking for Love
TTITLE11=Slow Burn
TTITLE12=Someday When I'm Dead and Gone
TTITLE13=I Can Do You Right
TTITLE14=She's Moving On
TTITLE15=I'm Your Honeyboy
EXTD=
EXTT0=
EXTT1=
EXTT2=
EXTT3=
EXTT4=
EXTT5=
EXTT6=
EXTT7=
EXTT8=
EXTT9=
EXTT10=
EXTT11=
EXTT12=
EXTT13=
EXTT14=
EXTT15=
PLAYORDER=
